<mxfile host="app.diagrams.net" agent="Mozilla/5.0 (Windows NT 10.0; Win64; x64) AppleWebKit/537.36 (KHTML, like Gecko) Chrome/133.0.0.0 Safari/537.36 Edg/133.0.0.0" version="26.0.11">
  <diagram name="第 1 页" id="09UnbkyMgvgjwXnNTL9e">
    <mxGraphModel dx="1666" dy="755" grid="1" gridSize="10" guides="1" tooltips="1" connect="1" arrows="1" fold="1" page="1" pageScale="1" pageWidth="827" pageHeight="1169" math="0" shadow="0">
      <root>
        <mxCell id="0" />
        <mxCell id="1" parent="0" />
        <mxCell id="uyNnBXR-f7mRZnFHURZX-3" value="" style="edgeStyle=orthogonalEdgeStyle;rounded=0;orthogonalLoop=1;jettySize=auto;html=1;" edge="1" parent="1" source="uyNnBXR-f7mRZnFHURZX-1">
          <mxGeometry relative="1" as="geometry">
            <mxPoint x="220" y="200" as="targetPoint" />
          </mxGeometry>
        </mxCell>
        <mxCell id="uyNnBXR-f7mRZnFHURZX-1" value="开始" style="rounded=0;whiteSpace=wrap;html=1;" vertex="1" parent="1">
          <mxGeometry x="20" y="170" width="120" height="60" as="geometry" />
        </mxCell>
        <mxCell id="uyNnBXR-f7mRZnFHURZX-6" style="edgeStyle=orthogonalEdgeStyle;rounded=0;orthogonalLoop=1;jettySize=auto;html=1;exitX=1;exitY=0.5;exitDx=0;exitDy=0;" edge="1" parent="1" source="uyNnBXR-f7mRZnFHURZX-4" target="uyNnBXR-f7mRZnFHURZX-5">
          <mxGeometry relative="1" as="geometry" />
        </mxCell>
        <mxCell id="uyNnBXR-f7mRZnFHURZX-4" value="大模型（根据用户输入的信息进行生成故事大纲以及分镜）" style="rounded=1;whiteSpace=wrap;html=1;" vertex="1" parent="1">
          <mxGeometry x="220" y="170" width="120" height="60" as="geometry" />
        </mxCell>
        <mxCell id="uyNnBXR-f7mRZnFHURZX-8" style="edgeStyle=orthogonalEdgeStyle;rounded=0;orthogonalLoop=1;jettySize=auto;html=1;exitX=1;exitY=0.5;exitDx=0;exitDy=0;" edge="1" parent="1" source="uyNnBXR-f7mRZnFHURZX-5" target="uyNnBXR-f7mRZnFHURZX-7">
          <mxGeometry relative="1" as="geometry" />
        </mxCell>
        <mxCell id="uyNnBXR-f7mRZnFHURZX-5" value="大模型（根据分镜生成prompt）" style="rounded=1;whiteSpace=wrap;html=1;" vertex="1" parent="1">
          <mxGeometry x="414" y="170" width="120" height="60" as="geometry" />
        </mxCell>
        <mxCell id="uyNnBXR-f7mRZnFHURZX-12" style="edgeStyle=orthogonalEdgeStyle;rounded=0;orthogonalLoop=1;jettySize=auto;html=1;exitX=0.5;exitY=1;exitDx=0;exitDy=0;" edge="1" parent="1" source="uyNnBXR-f7mRZnFHURZX-7" target="uyNnBXR-f7mRZnFHURZX-9">
          <mxGeometry relative="1" as="geometry" />
        </mxCell>
        <mxCell id="uyNnBXR-f7mRZnFHURZX-7" value="图片（根据promgt批次生成图片）" style="rounded=1;whiteSpace=wrap;html=1;" vertex="1" parent="1">
          <mxGeometry x="600" y="170" width="120" height="60" as="geometry" />
        </mxCell>
        <mxCell id="uyNnBXR-f7mRZnFHURZX-13" style="edgeStyle=orthogonalEdgeStyle;rounded=0;orthogonalLoop=1;jettySize=auto;html=1;exitX=0;exitY=0.5;exitDx=0;exitDy=0;" edge="1" parent="1" source="uyNnBXR-f7mRZnFHURZX-9" target="uyNnBXR-f7mRZnFHURZX-10">
          <mxGeometry relative="1" as="geometry" />
        </mxCell>
        <mxCell id="uyNnBXR-f7mRZnFHURZX-9" value="填充画板" style="rounded=1;whiteSpace=wrap;html=1;" vertex="1" parent="1">
          <mxGeometry x="610" y="290" width="120" height="60" as="geometry" />
        </mxCell>
        <mxCell id="uyNnBXR-f7mRZnFHURZX-14" style="edgeStyle=orthogonalEdgeStyle;rounded=0;orthogonalLoop=1;jettySize=auto;html=1;exitX=0;exitY=0.5;exitDx=0;exitDy=0;" edge="1" parent="1" source="uyNnBXR-f7mRZnFHURZX-10" target="uyNnBXR-f7mRZnFHURZX-11">
          <mxGeometry relative="1" as="geometry" />
        </mxCell>
        <mxCell id="uyNnBXR-f7mRZnFHURZX-10" value="音频插件" style="rounded=1;whiteSpace=wrap;html=1;" vertex="1" parent="1">
          <mxGeometry x="430" y="290" width="120" height="60" as="geometry" />
        </mxCell>
        <mxCell id="uyNnBXR-f7mRZnFHURZX-11" value="视频插件" style="rounded=1;whiteSpace=wrap;html=1;" vertex="1" parent="1">
          <mxGeometry x="220" y="290" width="120" height="60" as="geometry" />
        </mxCell>
      </root>
    </mxGraphModel>
  </diagram>
</mxfile>
